<mxfile host="app.diagrams.net" modified="2023-11-07T14:10:15.934Z" agent="Mozilla/5.0 (Windows NT 10.0; Win64; x64) AppleWebKit/537.36 (KHTML, like Gecko) Chrome/119.0.0.0 Safari/537.36" etag="bevgCxFqdqN4klQSMJuX" version="22.0.8" type="device">
  <diagram name="PÃ¡gina-1" id="z6VJJc3UTWkZnatyOOzI">
    <mxGraphModel dx="1275" dy="1286" grid="1" gridSize="10" guides="1" tooltips="1" connect="1" arrows="1" fold="1" page="1" pageScale="1" pageWidth="827" pageHeight="1169" math="0" shadow="0">
      <root>
        <mxCell id="0" />
        <mxCell id="1" parent="0" />
        <mxCell id="SzlN7uqFEOjFIe1JulzQ-1" value="" style="shape=image;verticalLabelPosition=bottom;labelBackgroundColor=default;verticalAlign=top;aspect=fixed;imageAspect=0;image=data:image/png,iVBORw0KGgoAAAANSUhEUgAAArIAAAA5CAYAAADKkciyAAAAAXNSR0IArs4c6QAAAARnQU1BAACxjwv8YQUAAAAJcEhZcwAADsMAAA7DAcdvqGQAAFPFSURBVHhe7Z0HQBRX/se/7CJdRRNjQYEgqBgLSowoZ0HFxIYtVuzGFms8sZ9ii+U8z5gYJRpbDgyn0b8xKFhCk6YYkCJYKFIEMcAiLn3393+zu1S3AMF688npOW9m3vu9X3tvZt7saBEDPDw8PDw8PDw8PG8ZAsX/8/Dw8PDw8PDw8LxV8BNZHh4eHh4eHh6etxJ+IsvDw8PDw8PDw/NWwk9kG4DnSTFIEEkVW28ORelRuJv5euV6U3XD8/ZS8CgSd1KLFFvKqc0xr44CPIq8g3qJI81D8u0bCI7OYLXwcLwJea2cN0kWHp5XRZ3G9aJ0RN3NxMuMEqUT2YKYE1jY3wLN9HTR1NQOMw+EIlchRUlGEI6uHI4u4w7h7YjfIjy8fgzb5n6Gfvb2+Fv/wRg5fhImjh+LcVPnY80/3RGSXqI4tm5IUn3x77mf4MPOE+EWX6YofQPIu4PTqxxhadkfWwJez2D+KnUjub8bffVbYth3sShWlPG8o0hTcHR2H/SZd1J1/qnNMa8QacpRzO7TB/NO1i2ZS5LPYu2Xe3Ax+CI2D+uArlNOIlGi2Pk/QJHPApgadMT8XxV6ewPyWgVvkizvMkU+WGBqgI7zf31L5huVvIvjUt3G9TzcOb0KjpaW6L8lgM3EXiLcrxZUQ+xHLoM/Ixe3X+mq10naOMKMdIWtaaJHBkkK79H10wdpbpdGpDP4O3osUZzzFiC+MJNaCpvS56fzFSWF9Dj0JH3VvxU1ampDC/6bRKWKPXWhONiFOul2IpeQYkXJm4Ek83saotuEJnqKFSWakWRH0B8PyxRbf51XoxsJJX8zjD5e5k1Zb5E/vgwa2n5vKuJHERSZUqjY4pBQdsQfVLXrLx7zOhHTo4hIqpM4kixy/9yERhzJ5jYo+/ftNH3hMYp7982roJgCvupNjv+KZJm6kvrktZfFmyTLu0pxwFfU2/FfFFnHUH79ufDdHZfqNK5LMun7IbrUZKIny4IvjxfuyBaH3kHrLWexZ/4oDBk+A9v+exIL2/+Jy+f8UKjXAYMmz4HTx83eujUJ2sZNYaSlBaGwXHI9tO49A/su/wbXrkk4+sV07Iup+51DYfNmaPoGKkNgZARDLcVGrSjArf0b8eP9hrt7+mp0U4DkZjPw0z8/RYu3zSkblIa335uKgakNurfTU2wxCm5h/8YfUbXrLxzzWjGAqU131Emckpu4HiSGQWPuJAGaO2zAqUOz0Uko3/3OI3mMnO6uOLWiO8vUldQ9r7083iRZ3k0keJzTHa6nVqB7nUL5TciF7+64VKdxXWAEo1cQJC+IoztoGb6yN1RsMQw+hm3nRtDV14M8h2qhkXYj2b/eCQxssWLLNJiJQ3Dg3954riguyb6PML/r8LuZgNwX4kGC3ISbCAyOQnoRp5GasP2J4QgMCEV8lrplC1JkRF6F9+XL8A6Iky3fkGZE4Kr3ZVz2CUGiWHEYxEiJisdTtr/kSSyCg2OhtloONmln/3sBSW4iwgMDEBqfhYoqpE8Rsn8apu4JQ3LkFXj7xsjaklOEjJgg+PqHIzm/Ns92NOmmLvWp6ndVvaWim/NkdMhWprcipEfH4Qk7XyJKQnhwBFLK95Vk4W5wICLTlaw8LMpATJAv/MOTUU3EglRExz+FpOgxosLikF3xmFedvaXIS7wJ/4DbSMrNRkZGhXAqKcqIQZCvP8KT86s9ihanRCFergzEBgcjtrwtdfZ7bX2RIj8pFomsUUnOfYSy+u7nvvhcXKk/KpDmJeKmfwBuJ+UiOyODeYOCKmuupE9DsH/aVOwJS0bkFW/4xjyV66ziGCly4wNlvnKZ85cb95DHHZD/EEE+rMw7EPHl66Ya2I5VeWEtpTgFUUz/UtbrJ7HBCI6t7H9J6i34XAnBQ1EZ/rx7jfl0MB7mK3aqlbEAqdEsXiRFeBwVhjiFUYvSoxEnDwIkhQcjojIIkHU3GIGR6ezMqpQg+34Y/K774WZCLqqlP5V+o4wSPI0PhZ9fGB7KbF/bfMfOFJWglVkjxIfXyL8q8ppSVPm+NA+JN/0RcDsJudkZ0GxKFTmrlrI0jP6lyI71q/Bjn9AkeTwUJCNM5sd+iM0ul63uPqIWaTZi/bxl7V6+7IPQJLn8Bclh8OFs6ReLiqaVUPI0HqF+fgh7mMsk42weKbe5dwDi5E6AiKtc/T4Iqe4EKGllhkbx4UioMQjXKxc2WHz/L45LrC614zonnrJxi4uR2gZs/dE8ry5LQlL6e/hs9IBqV8bvEgZ2Q2DfnPDkhh+iSiR4eHIa7MbsQ+TTTITuHoaO9q4ILvergmj8MGMo5v7AnC/+AjYudUNc1RgThWH/zAlY4xmN1PteWN2/MxxdryOrquNVIEBzczPkeCyE09wfwN0QFjQzQYt738HZaQVOp5Qi++ZxLBtoiQ5Dt8Pj2EJ8NmIqpo/ogS5O3+NeLXJQJSKE7Z+JCWs8EZ16H16r+6OzoyuuM8GkosfIafIBmpIUxWIRRHkFsuQpzfTB9vkr4eYXhfAzLuhnZY81PllVnLQGGnRT+/pY0lbbb816E93xxNpPrWDZfzM8z26C85SZmDO+D6x7f4VLt05hsdPnmLd4Cuyt+2HjjfIgliLTZzvmr3SDX1Q4zrj0g5X9GvhkPsWtkyswyNIKjlvcsGdCP/Tp+wlmHH/CdKfO3iWI/m4OlnmkoKz4Adxn98XnR5OrTwyqIs2Ez/b5WOnG/DD8DFz6WcF+jQ8yn97E8WUDYdlhKLZ7HMPCz0Zg6vQR6NHFCd8zJ1Buv9fXF0mqP779ojfMOk/Ft+6ucOxpB8chfdHZsh82+YsUR6n2R46S6O8wZ5kHUsqK8cB9Nvp+fhTJbGCL/HkNhlq2V6y5kkL0OAdNPmgKkhZDLBIh73l2jWMEMHxPHwlH5mHU6K/xR7M2MOSynkFLNA7/BntvCvEeV9CQdqyCVBSJn9cMhWV7xVpKNim4eXwZBlp2wNDtHji28DOMmDodI3p0gdP392QDPZWIkScSo4QIpeI8iETPUCRhgqiUkcXLrZNYMcgSVo5b4LZnAvr16YteU7bCbc2nsLLsj82eZ7HJeQpmzhmPPta98dWlWzi12Amfz1uMKfbW6LfxhnxiJHmIk9PsMGZfJJ5mhmL3sI6wdw1GAZNbpd9w59VA+tQfO2fOwp5ryciKOYjRHT/GkguZMFYbt1zvNeTfWqHC9zljlkTjuznL4JFShuIH7pjd93McTVZtyTrnwCpIRXfgubaB9M/5ceNCXN88ESOnHkLSBx/Ix2O996EbsgNrLzxDE7V+rNxHPplxXDahUovAEI0Lr2PzxJGYeigJH3wgnwnova+LkB1rceFZE3lM1YRNKv13zsSsPdeQnBWDg6M74uMlF5BpbA6zHA8sdJqLH+ROAJMW9/CdsxNWnE6RxYDk4UlMsxuDfZFPkRm6G8M62sOVOYE0uz65kNEg8f0/Oi5pmvOoGLcUqfzVoFhioJLC4NXUZ8g+uluxgLSILn1hQnpv2RrZYv9l1F7bmCb9V8lKjeJgWtVRmwQtZtKF5/H0dW99stkUIVszWxrxD+quZ0ObIrgtMd1w6UbmM85RjuxEVnJlIZnplK8XEZH3og7UYcnvFetBxMEu9JFOK5rgnkHK1VVGD3b1IT3LFRSgWHJSHLSKOup9Qtvvcmt8yihx799Ix8iWlpxPIFkrv0yjlrp2tPOemjVA4p9ojH7l+i2R9yLq0GEJ/V4pGLl8pEOtJrhTBidY1mH6VN+EvrhUJN8veUKnnR1oTXD5dhp946BDjbqup1sVvlAVDbqpc32a+q1JbxLK/N6RdA1601r/DHY02x+5iXo2akJ2q69Qmsy40bTFVpdMF11lXs2JeJqcHdZQpYjfkINOI+q6/haVSlKYvLpk0G05Xcl6RvF+1ygqO0e9vZlfuXSxoTWh8gVekixP2n0wVsVabAk9Oe1MDmuCZbJw22nfOJBOo660nimoLHEv/U3HiGyXnKcEuTJoWktdstt5T9a3mvZ7vX3hQmoVdWrUmhw2XaIUJq/47hEaayIknZ6bKJKdpN4fiynYpQvZrAmVr4+UZJHn7oMUyzXG/OjQ0OprrrIOf0r6Jl9QuesqO6Ysbjf1NWhDM87lygsk6XRs0Sq6LFsyryFu69j3mkieHKKhVddSliXS3r/pkJHtEjovNyb9Mq0l6drtpIqQFrvTOKOq+UpTbpFQCvMXXYNutPxKFj2L96NrUdlUmvk9OeoaUO+1/pQhDwLa1LMRNbFbTVfkQUDRW2xJ13QRXWX6K4v/mnrrl+e7Uor4R3fSs9lEsk2lfqMkq0ky6fQkSxr6XTKTilF2l/7l8B61Ybnhuaa4LVOXfxk18poy1Pk+p7MuNmtIbkoJZXnupoMyx1KCppxVG1kaUv+Mwht/J2vdjrQyUO6LnIw/zZhIB5M5TdfPR5SPSzUppBt/tybdjiupsumfaMbEgyRr+gVY/j09iSyHfqfYX0Z3/+VA77WZQeees60Hu6iPniWtqHQCNgbr0Sfb77Ijyyj+696kX97v0gj6R3e9Cp+oay5s2Pj+XxuXNM151I9b3Pk/jdF/9Wtkq1EchQP/SsXsg0thra0oexchMZ4XEARNjWHcyAqLTgXh5+VWSPM/gT1Hg5AtLUZhEbu8eO6NQyceostABzRTnKpraobW5evWRJdwlF1Rtu9uAwNFkUGvqRhnnQ0vDy9kK8rqhhCGhgbsorgbhn5mAR1WYmhlibZaechV8qhWOSJcOnoaKe27w6ZSMEwdZ41sLw94KROswA/nvdNx/9I+7Ny5Ezt3n4LY0RVbZ/VClYUnlWjSTV3r+8v9FqBxYyMIdSxg+3Er2bIYHauOMNfVgqmtPUw4f9Y2h5mJFp7limR3AQr8zsM7/T4u7WPyMRl3nxKzq9itmNWLSSgwgqE+q9N2MPq1aIyOAwajq8Bbvb2126KTRSr2jbSH87YziBGOx+ovO0N5KBXA77w30u9fwj5OPzt345TYEa5bZ4FrXmhoCAOBIboN/QwWcmXAsq0W8nLlj+tq8nr7wprQ14eusAXsxziiHZPXwHoWts63AcUEIuBJjgZ/1EbbThZI3TcS9s7bcCZGiPGrv0RnrjFOdgMNj6qUHCPsMBMLPi3ChR9+RioLZcm90whtNRGDjNhOTXFbx77XRGDEbFdVHKEhk08Aw25D8ZncmLCybAutvFyodG2NuUUAI0N9CBrbYnC/FmjccQAGd20O7caNYSTUgYXtx2glDwJ0NNeFlqkt7OVBAHMzE2g9y4WItS20WoRTQT9juVUa/E/swdGgbEiLC8GlP6V+01zJEJJ7CR7euujZqzWTiiG0xsrf/0T6ybEqYr0KQjX5t5ao833ttp1gkboPI+2dse1MDITjV+NLmWMpoc4560UEDal/hp7dEiwZ8ASn/n1G9ha/JOW/+FVrNCa04+7G1s9H1E8CytGD3ZIlGPDkFP59hluyI0HKf3+F1ugJ4Jp+kVxc8vCGbs9eaC13Aliv/B1/pp/EWM1OAKtFpxD083JYpfnjxJ6jCMqWoriQewbD9tYxFzZsfP+PjUuaxnUN49arQrUPS7Nx/esDKFzyHeZ2UBHo7wiSpFuIyCQ0te2LbjoCCAsi8O38BfgxrSvmfOmItkKSH5cajwciglBbuT4kWSlIF0tRUlJc+ehJ5pQClIpy8Kw2fq6EmmtMtIRCaIFAcrE0I8lCSroY0pISFFcKJkugglIRcpQIJs1/iuzCRujk5IJ169ZV/Fm7cozSixpNuqlrfRx/ud/s9Bo1sDoV/5QhgIDbllUoRf7TbBQ26gQnl0r51q1bi5VjrJm2qtfEodHe1A6zTl6F2xRjBO2aDNuOfbD0l0fKk600H0+zC9GokxNcquhn3dqVGMMpiAleTQItIYSsgF2MKgqq8pr7ohRtWHS2YhOAUhQXPNHgj4R2s07iqtsUGAftwmTbjuiz9Bc8UjRWQxNKeeEYQUuMXzABxv5HcSxajLCfH6Krc0/ZQPTy+85kqSZOTT/kXkJlBcyWqly7NrmlRo8V1GybbdaIK4E8CORtC4QoiPgW8xf8iLSuc/ClY1so0h9DeQs1kWRn4c8iEbJzVPVGHarzb+1Q7/s67Wbh5FU3TDEOwq7JtujYZyl+KXesGtQnZ71IQ+qfITTH9BUTYHh5Pw5HFSD2P7+jxSQn2QtF9feR2iE0n44VEwxxef9hRBXE4j+/t8AkpxbKJxGSbGT9WQRRdo5Kn1aHQFiAiG/nY8GPaeg650s4thVW1lOnXNjw8f2/NC5pGtc1jluvCBUT2ecI/24TrtlsxsaBtb1ie1vJxbVvjuMPQWfMXeoEY7EPXMauQea4A9jmbIsW5VcezKe0mr+P5tqliA2/Xf134UgKKfMYYRsrWBhLEXc7HIWKXZAWobhEgDbderKErCirgVCb7eDqUGzLkdY+MDQhbAMrC2NI424jvFIwFBWXQNCmG3oqEUzQ1ARtDO/D08272mL5RK+LiKy5bpyhSTd1ra82NKzeBGhq0gaG9z3h5q14YYhDkgivi5FQJqJGeyMVUY9aY+aB64iPvYj13dPgtnQbvJX9oJ6gKUzaGOK+pxu8KxXEmvfCxTor6DX3pQKW3Ktkx9KCIkg/sEaXdu00+COQGvUIrWcewPX4WFxc3x1pbkuxTX1jGjEcvBAzO8XixL4t8BD1x6QP5X7/cvresNQ3t9QVsY8Lxq7JxLgD2+Bs20J2x4ijLiElbGkKE/0n8Pb0Ro6iDOxfPkc8EM/8QW3cqsm/tUO97xemRuFR65k4cD0esRfXo3uaG5Zu84bykGz4nKWJ2ui/8dDlWND9Ho7s2oaD4daYPph7rPAqfKQxhi5fgO73jmDXtoMIt54ORdMvImwJUxN9PPH2hHelEyDH5wg85E7A+kaysaEqUrkTwMdlLNZkjsOBbc6wrbsTVONVx/e7NC5pGtcbdtyqP0rmqM9xe/9cbE39G0a0Tset0FCEBF7CsTVL8E0Et8KXIJEwR2S9kIktzcH1bZMw0fWq2jcXXzdUXPyi0SWZ8P96MuacEGPwzhPYbK/HLjASkZD5HKn3EpFfnI7Ai8FILxMjNz0CYZkOmD7yfSQf/ztWX0hmhi1Gyh8xyJTkIjUpAyKt4Vgyvxvyzu3HkTh5a9In1+D7yA5LFw+ArqykJkK8b9IaehlhuH47C7kJ3nA7GYRsSQ7Sk7KQVySV65s5TkUcyCJC4UiqkEpYUig/xgjDl8xHt7xz2H8kTq4H6RNc830Eu6WLMYATTEcPulrP8DidXUmHBuIODcFs5/ZIOz4VDlNdccTzLE7smAOXECNYcrexaiBoMUq9bupYH9c/9f3WpDfuVHZstYTCXTVX1Zv8LohEUWAwZDac26fh+FQHTHU9As+zJ7BjjgtCjCyhIzuXUFpaZZW7kQZ7S1JxZtch3BIDeubDscF1Miz0daH34kU0wwBDZjujfdpxTHWYCtcjnjh7YgfmuITAiClIynQhYTJIK5Uhk11a3pka9nvQ53X2RQHzsYTEZ4p/Z+K336LRZeGXGKSnyR8lSD2zC4fkjWH4BldMttCHrqwx5hdMCZxty9HR04XWs8dIz85CaOAdNgy+eIwM7W6YO68/ck6fhXSk/C6WjHr3XYxbB2Zg5CRXXM6o0VZVZLFYZdBm23LXrjCmwrWr+KqkFKVlJSgpv2WtSUa2zdmUSkurv7Qh8/fqEwbuuAq/YcjalnBtS5GfmIDM56m4l5iP4vRAXAxOR5k4F+kRIYjOV+I3ymg6DLMntkPmTwswdvlB/PecO/61aDo8yA5WQvVxm/tUdf4Nic5X6LJqDL+IujgWpp7BrkO3mI/owXz4BrhOtoC+rp6S+1oMAw05qxayNKz+5cdzSzW+WDESkrP7EWM3Hb3K82c9fUR86wBmjJwE18sZihLVCK2/wIqREpzdHwO76b1kTzSU0xTDZk9Eu8yfsGDschz87zm4/2sRpnsQ7KyEEL5vgtZ6GQi7fhtZuQnwdjuJoGwJctKT2PZTJCZk4nnqPSTmFyM98CKC08sgzk1HREh0nXPhHU3jcp1y2//WuKRxXBerH7dk+pL5f2VvXwpMCVUopTv7h9AHQi1Oj1X+aJHOJ9sptjiNgtx30QSrRiT8YBC5/HCVHogTyW1kK2o1/PtqP0j+5lBID64fpy1OZqSt1Yha246iKbPn0txZk8lpYF9ymORCboGPKxc6Sx7ThRW9qVXjZmQxYB4d9j1Fs82M6cPhO+lGLtude5MOzrIjs2bGZPaxEy3bsYDsze1o8vofKegxU0BpMv26cTTZ9hhIk+YtorkzFtJe30z1C+rzQ2n3sA+paVMT6jFhD/leciFbqwE0a4s7+d/4hTYMaUnCRh1o0t5LFHvvBh1bbk/GAn2ymetGgWlKlF4YT16bh1EboZBMR2+n/4sWscJSSv51I4227UEDJ82jRXNn0MK9vpRZLlhZEv00vRM1b96BnPaE0DOurDCOPJYNIqtmuqTTxJTs55+gGDUrtjXqpg71PYs5r7nfavQWGPx/tGVkWxJqm9PYry9QVHIE/bJ1FJkKtcl87A46F5lEEWe30Mh2QhKajaYdXvdki9UL4zxo2SAraqarQ01M7Wn+iRgSS3IownM9ObZmx7YeQmvdb9Gf5XpTZ+/iINrQz4psBs+kVa7baN2CBbTjKvfShSoKKc5jGQ2yaka6Ok3I1H4+neAU9CyGzm8YQi2FjajDpL10KfYe3Ti2nOyNBaRvM5f5b5pS+73Ovshe0tFpQ30nz6clK1fS0hljafLGi/Sowl3V+WMxBW3oR1Y2g2nmKlfatm4BLdhxlTIkz+nuRVcabsJkbzeKtv4WJ6upLOknmt6pOTXv4ER7QjKUHlNB7jmaO2wz/VHzzYb69F2STsfHtqLmH7Qi+63Rsmpe4Plduug6nExYLLYbtZV+i8ukmPMbaEhLITXqMIn2XoqlezeO0XJ7YxLo29Bct0B69PB3+n5ZP3pfIKAPHFbR4TMhJAtzlTJKKCfCk9Y7tiahsDUNWetOtzijsrZ/3TKS2sp8/mu6EJVMEb9spVGmQtI2H0s7zkVSUsRZFift2HlmNHqHF8UlXaAVvVtR42YWNGDeYfI9NZvMjD+k4TsuUYAqv1GG+C65Lx1EHVo0pqYmtjR5j19lrlETt+FZaarzb4ayvKYcpb7PyouDNlA/KxsaPHMVuW5bRwsW7KCrsrddVaAqZynNsTVoSP3vvEGK1xTlFAXQV2wsc0urIXtdfYSVpx8fS62af0Ct7LfK69BAUcBXZDvKjWo2/SJiuuu+lAZ1aEGNma1tJ+8hv0onoNDdw+jDpk3JpMcE2uN7iVxsrWjArC3kHp5Fjy+soN6tGlMziwE077AvnZptRsYfDqedV4LrlQsbKrf9L45LGsd1VeMWK4/32kzD2jD5TEfT9v9TkSMbAC3uL25Cy8PDw9NQlEVuwsd9LmBU8G1s6/Hq1kq9DkpurMeXf3yBo8ssFCU8PC8XaeoPmL29Ofa7fV7xEs5fouQG1n/5B74+ukxRoAopUn+Yje3N98Pt8wZpmYfnL/NuL3/l4eF5vbzkJ0qvG2lOKI56vQfn6eaKEh6el4UUBXn5KIEYYW7X0HrayIaZxEpzEHrUC+85T1cUKEFagLz8EkAcBrdrrTFtJD+J5Xlz4CeyPDw8DU5Zbi7yJXn4M0e+RuudRJqL6IhSDP/H3+HQjE+lPC8Xyd1dGNTyPbRo1RGLnzpjhX1DfKJIitzoCJQO/wf+7qBqcirB3V2D0PK9FmjVcTGeOq9AgzTNw9NA8EsLeHh4GpSC+1fhfj4Aibll0DY2x4AJszGkverXQnh4eGqBJAXXDv8Hd5o7YsbEXpW/6PAKkKRcw+H/3EFzxxmY2Kvy1xR4eN4E+IksDw8PDw8PDw/PWwn/PIyHh4eHh4eHh+et5DVNZIuQHnVX9ok9ntfE8yTEJIje9XdxXhpF6VG4yzswD0Oal4zbN4IRnVGAgkeRuJNapNjTgDRAvL402d4kXkJee54UgwQRH+s8f5UCPIq8g3c9BF8Hr3wim3fnNFY5WsKy/xYE8AZ99UhS4fvvufjkw86Y6BZf/cfTeTSTdwenVznC0rI/trwyB5biadiPWDvrc3w+aTKmznXB3hMnsOOgD0uNPK8PCZLPrsWXey4i+OJmDLOyRr/PeqPPvJMNd5HeUPEqTcHR2X0aVrY3iZeQ1ySpvvj33E/wYeeJcIvnMyWH5P5u9NVviWHfxaLal554NCJNOYrZffpg3snMV3QDSYonNz2xb8V4DPpbP4zefB051RouQaLfSexaMAIDRi3CP38KUJS/hXBrZF8tEsr8fgjpNplInip+DF8ZkuwI+uPN/OLC20dxMLl00qVOLiFUrCjiqT2SzO9piG4TmlgXB/4LPA9cR7YdRtOBP3JlP1r9PMGLtgw1IYNRx+U/9l1vJJQd8ccb+iGTNx9Jljt9bjKCjmRzG9n0+/bpNPef5ygypVB+QEPRQPEqfhTR8LK9SbyEvFYc7EKddDuRS0jtany3xykJJX8zjD5e5k1Zqn49n6cSlhMi/nhIld4gpkcRkfTKQ7AsiU6Ma0NCYRsa8+PDyo8/KSj8bR71Wfq77MMLtePNGzdew9ICAYyMDJV/ElAlBbi1fyN+vM9fFTcIwuZo1pRfHl1fBEZGMKybA/8FinD96DEk9ZyGuT2MZY9QDC2GY+N//onxFd9YrScFt7B/44/gw6p+lNy8jiCxARpzP0UkaA6HDadwdNVYdG/XwL9N1EDxamBq0/CyvUm8hLwmbN4Mta/yXR+nCpDcbAZ++uenlZ935lFJwa392Pjj/SpPBwxgatMdrzwEhW3xcQ9LtHovHxdXTMW24PJvHcsRNDVGK2Oj2v8SxRs4brwWd9TS0lI6kZXkJiI8MACh8Vny769zSJ8iZP80TN0ThuTIK/D2jcHT8tvjRRmICfKFf3gy8mt7r77kKeJD/eAX9hC5EkVZOZJcJIYHIiA0Hlk1f/6yIBXR8U8hKXqMqLA4ZMvOLUBqdDyeSorwOCoMcfJCGUUZMQjy9Ud4cn61xwjSvETc9A/A7aRcZGdkQCwvRX5SLBJZJyQ59xEaEIr7LwinQj8KxClRiOcUU/IEscHBiH2hA9z5CbgZGIyo9CJmBEVhVVTpU5yCKNZ3KWv1SWwwgmNfbF85Jci+Hwa/6364mZBb+8d9quSQ5iHxpj8CbichNzsDGXLlKShCRkwQfP3DkazWGaTIjQ+E9+XLuMz+eN+4hzzu8PyHCPJhZd6BiM+Vn1+SfR9hftfhdzMBuVWF5/xXuQPX0X9qgxZ0dLTxzPvf2H4tA+WnCVp8hikjTWokn9rqgAurEOyfNhV7wpIRecUbvjGcfeWo87Oi9GjEPWFHSkRICg9GREq5EUqQdTcYgZHpNZY71NMH6hunRemIjnvC+iKBKCkcwREpihhjVWbdRXBgJNKVrMdQ1+cXKUHqLR9cCXkIUdmfuHvtMnyCH0I2PLD2o+5WeXRY79jhZFIfr6pyjErqI5ssFv1xI/KRPE6qotKnVfmhFHmJN+EfcBtJudnIqB7AdbRBJQ2uJ+Y7uQk3ERgcBWVVKs0L6sYpdf6qNqdVQZqByKveLGd5IyAul/VDioyIq7I85hOSWOHj9fc3MVKi2FjGZC55Eovg4FiFrKydSHk73gGp6OY8GR2yI3DVm+VKnxAkVjRchPToOMhTQxLCgyNQmRqycDc4EJFKAk+VbQpSo9l4JkHR4yiExWVX5D21ulRFrf1cxVxCXQywml7Mb1I8DdmPaVP3ICw5Ele8fRGjcIaKdyukuYgP5OzJjUPeuHEvT9b//IdB8OF0HRgPxTBUvz7XROs9jPnnd5j0XgR2Tl+Cs+kvdKQGLAYSwxHI5iLxVRpVOW6UZON+mB+u+91EQrXBkpGfgPDojFr6Yf14Q66rRAjbPxMT1ngiOvU+vFb3R2dHV1zPYuEqeoycJh+gKUlRLBZBlFfAnEWKTJ/tmL/SDX5R4Tjj0g9W9mvgw45XDXMu/52YOWsPriVnIebgaHT8eAkuPJafIwrbj5kT1sAzOhX3vVajf2dHuF7PglSajVsnV2CQpRUct7hhz4R+6NO3FyZvOoDlgyxh5bgFbnsmoF+fvvhkxnE8KcuEz/b5WOnmh6jwM3DpZwX7NT7gRCuJ/g5zlnkgpawYD9xno+/nR5GQ5I9vv+gNs85T8a27Kxx72sFxSF90tuyHTf4imWxq9ZN9E8eXDYRlh6HY7nEMCz8bganTR6BHFyd8f688/AsQ/cMMDJ37A5t4xOPCxqVwi6vqbCr0mfkUN48vw0DLDhi63QPHFn6GEVOnY0SPLnD6/l5lclGG5CFOTrPDmH2ReJoZit3DOsLeNbjGJKcmauxaEo3v5iyDR0oZih+4Y3bfz3E0WZE2Mn2wff5KuPlFIfyMC/pZ2WOND7OdbG9NBDB8Tx8JR+Zh1Oiv8UezNjDkosCgJRqHf4O9N4V4z5Dw8OQ02I3Zh8inmQjdPQwd7V0RrEb4uvnPJ5hxnJts1QZdDFrmAodGYdg1vAfsvzgAv1RudVozDBs7mF3jy6mbDqQQPc5Bkw+agqTFEItEyCvgdKkuDu/Ac+2nsLLsj82eZ7HJeQpmzhmPPta98dWlWzi12Amfz1uMKfbW6LfxhnxgracP1C9ORbjjuRafWlmi/2ZPnN3kjCkz52B8H2v0/uoSbp1aDKfP52HxFHtY99uIGxUDsOo+q4ZQIs6DSFwColKI81heEmUh0mMNhlq2R/8tAShidq937GiKV6nqHKMUppvIn+suW37YXowZsRFBJbrsQmop+nTqBYehIzDO9RwCVPh0mUo/LEH0d3OwzCMFZcUP4D67Lz4/mqwY+OtjA44G1hNHQTR+mDEUc39gE7H4C9i41A2VVUpU5gXl45Qaf+WqU5PTXkDQHOZmOfBY6MRki2F1C9DMpAXufecMpxWnkVJaX3+TIvvmcSwbaIkOQ7fD49hCfDZiKqaP6IEuTt/jnkSA5uZmyPFYCCem5xgmnqCZCVrc+w7OTitwOqUUojueWPupFSz7b4bn2U1wnjITc8b3gXXvr3Dp1iksdvoc8xZPgb11P2wsDzwVtsl8egsnVwyCpZUjtrjtwYR+fdD3kxk4zmbIanWpjFr5ufq5hMoY2HodYlX5jcXb45wm+KApQVosZrkhD8+zI/HzmqGwbK94t0JgiPf0E3Bk3iiM/voPNGtjKJuMGbRsjPBv9uKm8D3ZuFTnPqtB0GYiDruvQ88/3bFg+r8RxcRQiigM+2dOwBrPaKTe98Lq/p3h6HqdxY3ycUPy8CSm2Y3BvsinyAzdjWEd7eFaMViWwH/jp+jTezp+SK2P1LVEscTglSL+aQzpV1kjK/JeRB06LKHfy5ccioPJ5SMdajXBnTK4tThZh+lTfRP64pJ8FYfkyWlydlhDwYpFHZK0b8hBpxF1XX/rhfUf5UgyT9Mky6H0XbJ8cU/Z3X+Rw3ttaMa555wAtKhDB1pSKQAFu3xEOq0mkDsngCSFvnHQJYNuy+lK1jOK97tGUdmllPKNA+kadKPlV7LoWbwfXYt6ShmnnclhTbBivYmE0tgxOo260vpbXJ1dyGZNKMmWyEiyyHP3QYplAhcHr6JOjVqTw6ZLlFLMWr97hMaaCEmn5yaKZPs16acscS/9TceIbJecpwRuKZfoF5rWUpfsdt6Trc8R33ChbuYz6FyO7GxWcIUWmulUrCVTq8+yRNr7Nx0ysl1C5+WV0y/TWpKu3U66p2aNTFn819Rb34Y2RXAWKaWIf3QnPZtNJNtUgTo5xMEu1MVmDYXKlUdZnrvpIKc8yRM67exAaypPYrbSoUZd19MtNW2Vxe2mvgac/XPlBZJ0OrZoFV3O53bG09e99clmU4TMn0oj/kHd9cr7whD/RGP0q6yRrZf/yP2wtjy/60mrBpuSnpYWCRp3oNGb/o8elq+1qqcOsg5/SvomX5AirDT6Gbc22FHXgHqv9acMzvbFkbSpZyNqYrearqTJNEXRW2xJ13QRXWV11ssH/lKcZtL3jkzPvdeSv1xAitzUkxo1saPVV9LktozeQra6prSIE5ChMfeoQew+joyMJ9F/y89ldjg0VJeaTPRkkjHqGTvq41VCT1TmGHWKraNsZXdpp50R9dx8R6Y3Kr1Dm3vqksVSP/n6U2U+/TRDtR9yeu1iQ2vkAczSnyftPhgrq7u+Nmh4PYnphks3Mp9xjiqrXEhmOoo1spryQo1xSpO/cutvleY0VZQ9oF199MhyRYDcBuzvoFUdSe+T7XRXZrP6+Rs7kRL3/o10jGxpyfkEWd2iX6ZRS1072il3Bnqwqw/pWa6gAHnDVBy0ijrqfULbZQ1z7704srGwN631z5CNOcWRm6hnoyZkt/oKyVNDNG2x1SXTRVeZPdTbRpLC8j7LM92WX6GsZ/Hkdy2KsnM0xL4qNOhE/dinPgbU57csOvypPpl8cUnRR66tQzS02rsVZRS3uy8ZtGE+XDEMHaNFqy4TNwxpzHe1ppRito+lpbKcx2x9agK1a6RHnZdcpj9ZNcWBLjT2HzflfWT68V7UgTos+V2eJxjc2PuRTiua4J7BLFVz3Cij+K97k355v0sj6B/d9SpihEMcc5b2H75OaXURuY68AXdkRbh0lF1Rtu8Om/LbSwa9MHWcNbK9POCVLS+qSoHfeXin38elfTuxc+dO7D4lZlcMWzGrl6HiiBfJveQBb92e6NVa3mWh9Ur8/mc6To41hOjSUXZl2R7dKwVAr6njYJ3tBQ8vJoDACIb6AjS2HYx+LRqj44DB6NpcG0aG+hA0tsXgfi3QuOMADO6qh4Dz3ki/fwn7mFw7d+7GKTG7gto6C70MtdG2kwVS942EvfM2nIkRYvzqL9FZm1Wvrw9dYQvYj3FEOx3WuvUsbJ1vA4oJRMCTHI36ERoawoBd4XUb+hksuA8oGbKr47ZayMvNZVedz+F96AQedhmIii8Q6prCrHXlQ2m1+hQawtBAAMNuQ/GZvHJYWbaFVl7ui498qyC0WoRTQT9juVUa/E/swdGgbHZ1WogiNRdl6uTQbtsJFqn7MNLeGdvOxEA4fjW+5JRX4Ifz3um4f2mf7Jydu09B7OiKrbN6MUlVI+wwEws+LcKFH34Gd6EouXcaoa0mYpARt9MKi04F4eflVkjzP4E9R4OQza5AC1UIXz//qVvoGVpPxD+vxSLil00Y0+4JLm4bj76jDyCae15TTx1UR3McCho3hpFQBxa2H6MV5z46VuhorgstU1vYmzBbQBvmZibQepYLEfON+vjAX4vTxmhsJISOhS0+lgsIq47m0NUyha29CZOOSWhuBhOtZ8jlBKxH7lELZ2eDKg+i6xU7muK1AH4qc4ziEGXUVbayR0hIZc5VvoZG2wIWLKdkPEpGIbetzKf1AlT7oXZbdLJIxb6R9nDedgYxwvFY/WVnZpP62uAl6Om5Nw6deIguAx1QWaUZKqps4LygMqfVl3rmanYiDA0NIDDshqGfWbCoYWdaWaKtVh5y1Z+ogPlBYyMIdSxg+3Er2XInHauOMNfVgqmtPeSpwRxmJlp4litiY5J62wiMDKHPYtl2cD+0aNwRAwZ3hcBbQ+yrQoNO1I59GmKgrvmN61fVEOT03mHmAnxadAE//JwKbjnUvdOhaDVxELhhSGO+qxdCfDj9CNxduiD18BzMOfYQpYo9MkSXcPR0Ctp3t2GtyTHoNRXjrLPh5eGFF1sVwmrRKQT9vBxWaf44secogrKlKC4sqrhrbPDReCxfMAgmL3G2+fonspIspKSLIS0pQXGFA8gHREGpCDnPagaSFPlPs1HYqBOcXNZh3bryP2uxcoy1bLB6EQmys/5EkSgbOS98x0yCrJR0iKUlKKkUQD7gCUohynnGjqjmfRW8UCrNx9PsQjTq5ASXCrnYn7UrMcZaB+1mncRVtykwDtqFybYd0WfpL3ikNE9ow6KzFQu5UhQXPNGsn5prjrWEELICdqHCupeK+AcikFBbhW406bPmelAtCOWVQ+0n4QRCFER8i/kLfkRa1zn40rEthGpPUC+HTrtZOHnVDVOMg7Brsi069lmKX5jypPlPkV3YCJ2cXKqcsw5rV46BtboxQdAS4xdMgLH/URyLFiPs54fo6txTlsS5sBAWRODb+QvwY1pXzPnSEW1VCl9//6kdEiRFRCrW2xmh01hX/HI7HD9Nbw/R9Z34tw9LGPXVQVVqFYesHzW6wq13r4pAwG0rfKPOPvBX45QT7wUBq5cIBLJt2fcM65x7NFO9tXrEjqZ4VZtj1Bu7TrLpfoKRn7bGw2uX8YB72l0Sh/hHxhg8aoBskOWOr4laP9Rph1knr8JtijGCdk2Gbcc+WPrLI0jqa4OXoCdJajweiAhCbVV6bNi8QCpyWv2ph78pqBnHWkIhO5udp+nEctjpNWqoIYsA8tTAKtRkm+oVMWoX+8pRpxMNY5+mGKhzfmPt1uiboOV4LJhgDP+jxxAtDsPPD7vCuSc3Cv2VPmuiKfpt+RnfjBLg0ldTsPVWxTorlhJTkC6WoqSkuGIiyhplFyEClIpyoCwcBcICRHw7Hwt+TEPXOV/Csa1Qo781NK9/IitsAysLY0jjbiNcdqnPIUVRcQkEbbqhJ1NKdQRoatIGhvc94eatWGjMIUmE18VIFQuKhWhpagL9J97w9M5RlDFyfHDE4wFaWlnAWBqH25UCQFpUjBJBG3TryZxTUaYRQVOYtDHEfU83eFes9OdE88LFyEKkRj1C65kHcD0+FhfXd0ea21Js8y5fqMICq4qTlBawCcoH1ujSrl0d9VMDreZ4v7k2SmPDcbvaD/+xMJZyMtZHn5oR+7hg7JpMjDuwDc62ld/mVu3g6uUoTI3Co9YzceB6PGIvrkf3NDcs3eaNkqYmaGN4H55u3pUvV7AQT/S6iEgNwhsOXoiZnWJxYt8WeIj6Y9KHCinFPnAZuwaZ4w5gm7Nt5TfNlQovRJuG8h+llCHp7PFq/gQ9S0zevhj2wnzkioqZ29VfBxXUOQ41U3cfeEVxWs5L6PNfRlO8qs0x9Y1WZTTH6H8ewtwmAfh22z786+uzaPT3y/jpC3OVelbrh4WpiHrUGjMPXEd87EWs754Gt6Xb4F1aTxu8BD1pNX8fzbVLERt+u/pvpJKU1cn+v4HzAhsQlOY0VUsXuTq1WZskE6YKUs0T1b+KUN5wZV6WIa39RLcqdbbNy8qxmsY+9TFQ9/ymDEMMXjgTnWJPYN8WD4j6T4J8GHrJ44p2e8z+8T/4yioO+9b/hBTF3EPYxgoWxlLE3Q6XP3nhkBahuESANt16sgs3RVkFYvi4jMWazHE4sM0ZtuqD4qXxWiayUgkLABaMcscxwvAl89Et7xz2H4mTT5ykT3DN9xHsli7GAF22raMHXa1neJyejazQQDzoMxvO7dNwfKoDproegefZE9gxxwUhRpaKO2ov0nTYbExsl4mfFozF8oP/xTn3f2HRdA+QnRWaDl+C+d3ycG7/EcTJBcCTa754ZLcUi2UCcFemhNLS6gvxuTIqLWVTjXIMMGS2M9qnHcdUh6lwPeKJsyd2YI5LCIwshUg9swuHuKsfPXMM3+CKyRb60NVTXKKxPickPlP8OxO//RaNLgu/xCA9zfqRSiRsuGAJvMJ35IlNntBbYNT0kXg/+Tj+vvoCklmGLk75AzGZEuSmJiFDJIbBEDX6lLK6mZNTZeXy5FVhP2WwK93EBGQ+T8W9xHwUpwfiYnA6ysS5SI8IQXT1X/+oQJ0cwtQz2HXoFgsbPZgP3wDXyRbQ19WDlsEQzHZuj7TjU+Ew1RVHPM/ixI45cAkxgqUqZyhHuxvmzuuPnNNnIR3pVPGTMtL8RCRkPkfqvUTkF6cj8GIw0svEyE2PQAgnPNOJtHxwYxjVy3+kyLm+DZMmuuJqtmpNclDuZexw8UB8xVtSEmQEhSKxpRMmOzbmFFcvHejo6ULr2WOkZ2chNDABAzTFoazP3ESB2ymH65f8gkiOzDdYfHP/1ccH/mqccrJUG+i5GGXbFSVyARV9qEXuUYOEi/1qdxKlrOvy9uSb9YgdjfFKanKMOoevq2wieK3bgKQR/8L21UuwwnU3tky3gbFsH4cSn1bnh8JUnNl1CPL0NxwbXCfDQl8Xelr1tMFL0JOgxShMH/k+ko//HasvJLPJbDFS/ohBpiQXqUkZyHmiIS/UGKcSBqj3V4mqnCaTRgnC92HSWg8ZYddxOysXCd5uOBmUDUlOOpKy8lBUr1zNwXxDfqJs3JAhP1ERJ0K8b9IaehlhuH47C7kJ3nA7GYRsSQ7Sk7KQx2beshirNtHl/KP8fA62zf6WyArUjZPMNqxtolJUdS3NOVYFGnSiduxTGwOa8psO9HS18OxxOrKzQhF4hzm+bNyonj85tLvNxbz+OTh9VoqRTi0qJmUa+yzNwfVtkzDR9So0DCEoKRGzi8NKHchoNhBfn96HYc2Yp5fvMhqOJfO7Ie/cfhyRN8rC8Rp8H9lh6eIB4DRdbdzwD0VcQiaep95DYn4x0gMvIji9DOLcdESERLOjJXh0diXGOv8bYZU3fhseloxeKYXxXrR5GPfjvKY0evv/UbSIKy2l5F830mjbHjRw0jxaNHcGLdzrS5nli4PLkuin6Z2oefMO5LQnRPYj8IVxHrRskBU109WhJqb2NP9ETMXiZFWI77rT0kEdqEXjpmRiO5n2+GXKFi9zlCb/ShtH21KPgZNo3qK5NGPhXvLlBJDkUITnenJsLSRh6yG01v0W/SmRUE6EJ613bM360ZqGrHWnW9yqaRmFFOexjAZZNSNdnSZkaj+fTsRwkhVT0IZ+ZGUzmGaucqVt6xbQgh1XZS8zyF4a0GlDfSfPpyUrV9LSGWNp8saL9Khigb4a/TyLofMbhlBLYSPqMGkvXYq9RzeOLSd7YwHp28wlt8A01odcunlwFtmZNSNjs4/JadkOWmBvTnaT19OPQY9lLSjX5zOKOb+BhrQUUqMOk2jvpVi6d+MYLbc3JoG+Dc11C6S0ChmrI3l8gVb0bkWNm1nQgHmHyffUbDIz/pCG77xBinXtSlFl1+KgDdTPyoYGz1xFrtvW0YIFO+hq+YL3wjjyWDaIrJrpkk4TU7Kff4JkKq8Nuedo7rDN9Ef5ynQOyWO6sKI3tWrcjCwGzKPDvqdotpkxfTh8J93IiCevzcOojVBIpqO30//JHbiO/sOdUUaJbiOpVavh9L3aX5Yuot83TaYZ86fQqGFONH7SZJrgNIj6D1tMxyKrfA6hHjooS/qJpndqTs07ONGeEK4uNX72/C79umUktRVqk/nYr+lCVDJF/LKVRpkKSdt8LO04F0lJEWdpy8h2LCbMaPQOL4pLqp8P1CtO6Tnd/XULjWwrl+frC1GUHPELbR1lSkJtcxq74xxFJkXQWdaHdsx2ZqN3kNc97m0FDblHKWWU9Pv3tKzf+yQQfEAOqw7TmZD7FH3RlYabMDu3G0Vbfwuvd+xojldVOUYVTDd1la3kMf083ZzYWMwNcaSlJSQdo/ep/d/msbYyVPg0Q5UfFgfRhn5WZDN4Jq1y3UbrFiygHVflL4/UzwaMBtcTV+VNOjjLjsyaGZPZx060bMcCsje3o8nrf6SgtFTVeYFzaCXjlGp/1ZDTVJAfupuGfdiUmpr0oAl7fOmSiy1ZDZhFW9z96cYv9fO3ZzHnacOQliRs1IEm7b1Esfdu0LHl9mQs0CebuW4UyJ2YH0q7h31ITZuaUI8Je8j3kgvZWg2gWVvcKTD4/1jct5XH2dcXKCo5gn7ZOopMZbliB52LTKKIsyw22zF/MRtNO7zusaym3DaSnAjyXO9IrVmMth6yltxv/VmL2FdF7cYvlXMJNg6ojIG7RRrGOJYjfppOnZo3pw5Oeygk4y5ddB1OJqxf7UZtpd/iqvth7rm5NGzzHywSqqO2z2WJ5DayFbUa/r3qjxOUpVCQx16a/pEhmY7YRD9evVdjniSh7KuraOrWKi/KlybTrxtHk22PgTRp3iKaO2Mh7fWtzMHVxw0RPb6wgnq3akzNLAbQvMO+dGq2GRl/OJx2yoKilG5t7U3vmU4nz5f4FQ0t7i/ZjJbntVEWuQkf97mAUcG3sa2H+nVuPDw8PC8d6WP8uvUw8sfNQk/pn8h59hwF+SJkRHvi2KNZ8Dk0THZ3hofnnYWPgbeG179GlqcSDY8HeHh4eF4+UmS4L8OKOxb4rJsFrG0+gX3/QXAcMQ4TP/sYvT6yUP6CFQ/POwMfA28T/B3ZN4Ai36X46NOLGOp1F4ccy3/0goeHh+d1IMWTC4sxcJoHSnuNxPA+HdHSQIpnaUl40mwENrpO1Lz+nIfnrYaPgbcJfiL7mim4fxXu5wOQmFsGbWNzDJgwG0Pa8xHCw8PzeilKDcVvF/0QnVHAcpMZejg6YVi3yrezeXjedfgYeDvgJ7I8PDw8PDw8PDxvJfwaWR4eHh4eHh4enrcSfiLLU4MipEfdRSb/4tlfouBRJO6kqv5p87eH50iKSYCI94dXSlF6FO5WDcKCR4i8k6rmx/KZpZJikFBPQ/2Vc3l4eHheJ/xElqeCvDunscrREpb9tyDgdc3BJPexu68+Wg77DrHVPq/zFiFNwdHZfdBn3sm3+IJAglTff2PuJx+i80Q3xFf/Fsg7S5HPApgadMT8XzNfz4+I5N3B6VWOsLTsjy0VQShFytHZ6NNnHk4qcShJqi/+PfcTfNh5ItzqaKi/ci4PDw/PmwA/keWpoGn3SXAZZy3/8slrQprmDf/S+Th16kt89Lb+SJ/AFF+cCEHIkZlo9dZGmBDtHBbji4Hvv1Z/eFlIcyIRkSBRbJVTgls+d9Bp+39xwKnV60mOTbtjkss4WFdTugCmX5xASMgRzFTiUMJ2Dlj8xUC8Xw9D/ZVzeXh4eN4E+IksTxUEMDIyVP2JxFdAQXIzzPjpn/i0/HuxbykGpjbo3k5PsfW2IkTzZk3fwSRRgFv7N+LH+zXuQEoeI6e7K06t6I7XaTmBkREMawahgSlsurdTKZeweTM0raeh/sq5PDw8PK+b15O+pHlIvOmPgNtJyM3OQIZYiozIq/C+fBneAXHIlbJDMiJw1fsyLvuEILH8G73SfCTFJiJfKkHO/VAEhN5Hbs2bKpAgNzEcgQGhiM+Sfyu4EjFSouLxlNVf8iQWwcGxeOEQFCEjJgi+/uFIzq/6GK8I6dFxeMKKJKIkhAdHIKVcrpIs3A0ORGR6xcfwK5DkJiI8MACh8Vny74hXQZqXiJv+AbidlIvsjAwmnTrESI+6gYCQOGQVl+BJQjLyyjIQedUbly97IyAuF9zXozMi5Hr0CUmsXl9RBmKCfOEfnsz0pyhTgpaWltKJbEP0Q5wShXi58hEbHIxYhfKlGZFyW3sHILWbMyZ3yEaErF8+CKkwPrduMBpxcgMgKTwYEZUGQNbdYARGprMpSk1U2bMAqdHMFyRFeBwVhrjsSkdqEJsVpSPqbtXH07X3Pf8bkXiUV1VWRkEqouOfQlL0GFFhcagiLjNtDIJ8/RGenF/tcbhqWUuQfT8Mftf9cDMhFy88UJbkIuFmIIKj0plESryB7U8MD2TxF/9iH16IbUV5FaTZsfDj7M389LJPKJJkxxQgOcxH5st+sdlsW4OM1VBlYynyEm/CP+A2knKzkcEJI32KkP3TMHVPGJIjr8DbN0ZmE44SUQlamTVCfHgCcqs1WBvblSNFbnygLAa5/nnfuAeZKfMfIsiH8/FAxHMJjlGSfR9hftfhd7NGe1wMvqB2ZWvXWa5LuInA4CikF7HTFKXlqKxfhvpzZftV5lEleuXh4eF5Tbz6iWxJNL6bswweKWUofuCO2X0/x9FkKZqbmyHHYyGc5v6AGJZ0Bc1M0OLed3B2WoHTKSVI9f8WX/Q2Q+ep38Ld1RE97RwxpG9nWPbbBH+Rom5RGPbPnIA1ntFIve+F1f07w9H1OrKkUmTfPI5lAy3RYeh2eBxbiM9GTMX0ET3Qxel73FNMCqSZPtg+fyXc/KIQfsYF/azsscYnEzl3PLH2UytY9t8Mz7Ob4DxlJuaM7wPr3l/h0q1TWOz0OeYtngJ7637YeKM8qYsQtn8mJqzxRHTqfXit7o/Ojq64nqUYxKK/w5xlHkgpK8YD99no+/lRJKsYrQtiT2DhiOnY7ROL+MBvMMXWAp1Hf484aXOYm+XAY6ET5v4QwwZ7AZqZtMC975zhtOI0UmT9kiLTZzvmr3SDX1Q4zrj0g5X9Gvgo5NDMX++HNPsmji8bCMsOQ7Hd4xgWfjYCU6ePQI8uTvieKV/Q3BxmOR5Y6DQXP8iND5MW9/CdsxNWnE5BqegOPNd+CivL/tjseRabnKdg5pzx6GPdG19duoVTi53w+bzFmGJvjX4bb1RM2FTZ8+mtk1gxyBJWjlvgtmcC+vXpi09mHGcXKQ1gM1ZH5M9rMNSyPfpvCWDTj9r5HvLDsHfMCGwMKoHuM28s7dMJvRyGYsTYtTj4wwoMsrSC4xY37JnQD336foIZx59AKs2Ez/b5WOnmh6jwM3DpZwX7NT7M39XIKnmIk9PsMGZfJJ5mhmL3sI6wdw2uuAAoiP4BM4YyO0SkIP7CRix1i6s2iRSF7cfMCWvgGZ2K+16r0b+zI1yvZ7FeMpTGdk0FMfMaNkbh9c2YOHIqDiV9gA9ktxn18L5uCHasvYBnhplqZayKchtz8pQg+rs5WOaRgrLiB3Cf3RefH01mk9XHyGnyAZqSFMViEUR5Bax/Ejw8OQ12Y/Yh8mkmQncPQ0d7VwQX1NJ21RDA8D19JByZh1Gjv8YfzdrAkMuyBi3ROPwb7L0pxHuGpKI9eQ3VkUIU+TPWDLVE+6pr1wui8cOMoSzu2QV1/AVsXOqGuApVq+qPYrfacxkq8yi3U7leX7QyDw8PzyuC+x3ZV0lxsAt1sVlDoYXcloSyPHfTwdhS9u8yerCrD+lZrqCAYm4fOzZoFXXU+4S23y3jtih4VSdq1NqBNl1KYVtiuntkLJkIdajnpkgqJRF5L+pAHZb8zvbIEbO2PtJpRRPcM1hLZZS492+kY2RLS84nsPOJRL9Mo5a6drTzHqtf8oROOzvQmuAi+cmSNPrGQYcadV1Pt0ollPm9I+ka9Ka1/hmsJiZN5Cbq2agJ2a2+Qmmc+KXRtMVWl0wXXSWuBpH3IurQYQn9XikMuXykQ60muFOGhPXFpQvZrAkluRqyyHP3QZKpoSb5v9OKLj3IJai8omIKWW1Nup1cKITrRNkD2tVHjyxXBMj6xO0PWtWR9D7ZTpzaJE9Ok7PDGqrs1jfkoNOIuq6/xXT2IuKfxpB+k4nkqWiuofpRlriX/qZjRLZLzlOCXPk0raUu2e28J9Nn2YNd1EfPklZUGp9WddSjT7bfle2XZH5PjroG1HutP2XIDUCbejaiJnar6YrcABS9xZZ0TRfRVa6vGuyZ8o0Ds2c3Wn4li57F+9G1qGzKaSibsbYPDdWlJhM9Fb6owffY/rs77cio52a6I6uvlO5s7km6FkvJjztYksJk1yWDbsvpStYzive7RlHZpfTktDM5rAmW+Rs7iNJYn3QadaX1t8QqZS2L/5p669vQpgi5ziL+0Z30bDaRbFN8g1y6mdOMczncWVwBXVloRjrlvibypkUdOtCSSgWxdj4inVYTyD1Doia2lVB4g/5urUsdVwbKZWTHP/lpBk08mEwl6mSsijobc7brYkNr5MIwFXjS7oOxcp/POkyf6pvQF5cU55XF09e99clmU4Rsf2nEP6i7Xnn7mmynnLK43dTXoA3TZa68QJJOxxatosv53E517THEP9EY/SY0sTwIOd0cGkq6FXEpphsu3ch8xjmqsNSVhWSm04lcOEOprV/DuZryaLEavfLw8PC8Bl75HVnttp1gkboPI+2dse1MDITjV+PLzrX5arEA+vq6ELawxxjHdtCBAaxnbcV8G0JMYACe5FzC0dMpaN/dhu2RY9BrKsZZZ8PLwwvZEMLQ0AACw24Y+pkFOx8wtLJEW6085HLrEwr8cN47Hfcv7cPOnTuxc/cpiB1dsXVWLxiyths3NoJQxwK2H7eSfdVDx6ojzHW1YGprDxNOfG1zmJlo4VmuCBKIcOnoaaS07w6bSmEwdZw1sr084JWtjbadLJC6byTsnbfhTIwQ41d/CWVqyPM6jP/k98ZQ2/KKhGjSuPbrWAv8zsM7/T4u7WN9Yv3afUoMR9etmNXLUHGEOhquH0JDQxgIDNFt6GewkCsflm21kJeby/SlGUHjxjAS6sDC9mO0khsAHc11oWVqC3u5AWBuZgKtZ7kQcRVqsKeRoT6r0xaD+7VA444DMLirAN4N1FcIjGBoUNVCGnwPZXiUkIoSZlX5WdqwsGgLrYxHSC5km1x9+swHbQejX4vG6DhgMLo2L4LfeW+k37+EfVz/du7GKbEjXLfOQi9D1bIKrRbhVNDPWG6VBv8Te3A0KBvS4kIUSYHn3odw4mEXDHRoJpMC0IWpWWuZv3OILh3F6ZT26F6pIPSaOg7W2V7w8MquW2zr2WHJkgF4curfOMM9L5ek4L+/amH0hHZopEbGaqizsXZbdLJIxb6R9nDedgYxwvFY/WVn5d9HF1ph0akg/LzcCmn+J7DnaBCypcUolDWoyXbKEXaYiQWfFuHCDz8jlevevdMIbTURg4y4neraUwbnrwaVMf/cG4dOPESXgQ6osJSpGVqXG0pd/ZrOFWnIo3XRKw8PD88r4JVPZAXtZuHkVTdMMQ7Crsm26NhnKX55VJupjBK0LdDZik3ISotR8CQF6WIpSkqK5Y85OWSTSwFKRTl4xprg1n9WRUsoZIMDyd7KluY/RXZhI3RycsG6desq/qxdOQbWXJZmp9Y4u8Y6NgEE3DZXmSQLKeliSEtKUFwpjGyiJSgVIecZod2sk7jqNgXGQbsw2bYj+iz9BS+qQYLHCcl4rq2DRtUbryVS5D/NRmGjTnByqezTunVrsXKMtebBp8H6wai59lZLCCErYBdTigJNsINr6KCmPQVyA7D/NNuzRlUN21dGzZXG6nyPmzB+MvJTtH54DZcfcA9pSxAX/wjGg0dhADfxeVFaroN4ml2IRp2c4FKlf+vWrsQYax3VsgqEKIj4FvMX/Ii0rnPwpWNbCGUySJAa/wAiEkJbqWNIkJWSDrG0BCWVCmIhZgYTQSlEOc9AdYptIcynr8AEw8vYfzgKBbH/we8tJsGJe8lPpYzVUWtjnXaYdfIq3KYYI2jXZNh27IOlvzxScdEkgLAgAt/OX4Af07pizpeOaFulQfW2U4GgJcYvmABj/6M4Fi1G2M8P0dW5p2wirKk9pTARyqWQpMbjgYggVG4ohur6NZ0rydKQR6kueuXh4eF5+bzyiawkNQqPWs/EgevxiL24Ht3T3LB0mze4pV9CbSGbh3CvLFVFWn3AYBuVSbMUBUVSfGDdBe3aWcHCWIq42+HgbmLJkBahuESANt16skSuKFOBoKkJ2hjeh6ebd8XLH9zgneh1EZEqX+xQgbANrCyMIY27jfBKYVBUXAJBm27o2RZIjXqE1jMP4Hp8LC6u7440t6XY5l2+AK4cLRg3awqk3UJoouoJgVxt1bUGKTehE6CpSRsY3veEm/fTSr1KEuF1MZJNlzTQYP2oBUJt1hPCi93QMMCroM72fJV9VULz0f/EoblNEPDtNuz719c42+jvuPzTFzBX5beCpjBpY4j7nm7wruwgM60XLkYWqpRV7OOCsWsyMe7ANjjbVn4znJivNX+/ObRLYxF+u/oP+HK+JWVHtrGygLE0DrcrFcRCrBglgjboJleQythWSuOhWL6gO+4d2YVtB8NhPX0wuHm7ahmro9bGhamIetQaMw9cR3zsRazvnga3pdug1FxiH7iMXYPMcQewzdkWLVQ1WEcMBy/EzE6xOLFvCzxE/THpQ0XFf7E9rebvo7l2KWLDb6OapbjcyelBTf2azhW20ZBHUQe98vDw8LwCXsNE9gx2HboFMfRgPnwDXCdbQF9Xjw2jQrxv0hp6GWG4fjsLuQnecDsZhGxJDtKTspCnSJTSJwlIfKb4d+Zv+C26CxZ+OQh6RsOxZH435J3bjyNx8pmK9Mk1+D6yw9LFA6DLhmKJhE0GWcKuGC9kkyRF8jcYgtnO7ZF2fCocprriiOdZnNgxBy4hRrDU4U5jx1WbZHN3ZBTnypDfCZTICowwfMl8dMs7h/1H4uQTRukTXPN9BLulizFAV4LUM7tw6JYY0DPH8A2umGyhD129mnfeBPhg2DgM1L+JXVMX4nvvm7jtewqnfDMq5RC+D5PWesgIu47bWblI8HbDyaBsSHLSkZSVB8GQ2XBun4bjUx0w1fUIPM+ewI45LggxslTcHaqOVML0w/VVttVQ/eDqlbApBpuoVipfpi+pQoHC903QWi8DYddvIys3Ad5uJxGULUFOehKyOOPLdF19osvdzS0/n0NmTia/rESTPdnBVFpa5SWVhusrO5GJweqvkE2D7zFEXuuwIWkE/rV9NZascMXuLdNhYyzfxw6WyVtaWvWVGgMMme2M9mnHMdVhKlyPeOLsiR2Y4xICI0uhClkJ+YkJyHyeinuJ+ShOD8TF4HSUiXORHhGGTIfpGPl+Mo7/fTUuJLNpTnEK/ojJhCQ3FUkZImgNX4L53fJwbv8RyENMiifXfPHIbikWD9BVE9uqEML6ixUYKTmL/TF2mN6L80ipGhlDEJ0vP1OGOhsLU3Fm1yHIVTAcG1wnw0JfFzJz6ehBV+sZHqdnIys0EBFPEpGQ+Ryp9xKRX5yOwIvBSC8TIzc9AiHReRptpxLtbpg7rz9yTp+FdKQTyn9RTpqvrj3WQalEnmuq1C+LS66M/VvQYhSmj3wfycf/jtUXktmEtBgpf8QgU5KL1KQM5KjpT1img9pzRVoa8qhEtV6lOdexbdJEuF7lfnWCh4eH5xXBBshXSnHQBupnZUODZ64i123raMGCHXQ1QyLfmR9Ku4d9SE2bmlCPCXvI95IL2VoNoFlb3Cn8z2LZSx86bfrS5PlLaOXKpTRj7GTaePGR7GUgGaXJ9OvG0WTbYyBNmreI5s5YSHt9M4mr/VnMedowpCUJG3WgSXsvUey9G3RsuT0ZC/TJZq4bBaaxWgrjyGPZILJqpks6TUzJfv4JihETPb/7K20Z2ZaE2uY09usLFJUcQb9sHUWmQm0yH7uDzkUmUcTZLTSynZCEZqNph9c9KqJSSv51I4227UEDJ82jRXNn0MK9vpQp62oxBW3oR1Y2g2nmKlfatm4BLdhxlcrVUB0JPb7qSk6dW5BRU3NyWPlfurz5Y9IrfwGHkR+6m4Z92JSamvSgCXt86ZKLLVkNmEVb3MPpT1ZnYZwHLRtkRc10daiJqT3NPxFT8SJHVQrjvWjzsDYkFJrS6O3/R9EirrQB+vEshs5vGEIthY2ow6S9dCn2Ht04tpzsjQWkbzOX3ALT2EH5FLp7GH3YtCmZ9JhAe3wvkYutFQ2YtYXcA4Pp1y0jqa1M31/ThahkivhlK40yFZK2+VjacS6SkiLOMhu1Y7Kb0egdXnSPe49HqT0llBPhSesdW7NjW9OQte50i1OSjIaw2XO6e9GVhpswX2g3irb+FlcL3yuhxz9PJ3NdLW6GRNDSIqGOEb3f/m8071gIhXmuJ8fWrL7WQ2it+y2ZTeUUUpzHMhpk1Yx0dZqQqf18OsE5rBpZJY8v0IrerahxMwsaMO8w+Z6aTWbGH9LwnTcol/la7s2DNMvOjJoZm9HHTstoxwJ7MrebTOt/DKLHLERKk3+ljaNtqcfASTRv0VyasXAv+coVpD62VVJEAV/Z0ii3NFmccqiXsQYqYpZ7WXBDPyuyGTyTVrluo3ULFtCOq9xLn4yyJPppeidq3rwDOe0JoWeSx3RhRW9q1bgZWQyYR4d9T9FsM2P6cPhOuhJci7yhjtxzNHfYZvqj6ttQatq7kRFPXpuHURuhkExHb6f/Y0H4/O5Fch1uwvy1HY3a+hvFsf5Jcm/SwVl2ZNbMmMw+dqJlOxaQvbkdTV7/IwWlpaqunylQ7blyI6vMo+r0WpboRiNbtaLh3z/kjuTh4eF5JWhxf8mntG86ZYjc9DH6XBiF4Nvb0EPjAs93FQnubreDrbsDfO/sgZ2y26o8bxlSPP51Kw7nj8OsnlL8mfMMzwvyIcqIhuexR5jlcwjD3tavnGlCmoofZm9H8/1u+Lz87SMeHh4eHp5a8sqXFjQEmp7o8fC8TUgz3LFsxR1YfNYNFtY2+MS+PwY5jsC4iZ/h414fweIdvGiTFuQhvwQQh7nhWutpGMlPYnl4eHh46sFbNJEtQ25uPiR5fyJHvnTrf5Qy/PlnHiTPRRDxv0L+biBogha617C89yA4L9uArTt2wHXNIsxc+F+YLZiPjuUv67wrSO5i16CWeK9FK3Rc/BTOK+xf6ydheXh4eHjeXt6SpQUFuH/VHecDEpFbpg1j8wGYMHsI2v/PPVaXID3oP/DwiUd2qTaaWQzGpDkDVb/ZzvP2UJSK0N8uwi86AwXaxjDr4QinYd0q3zh/p5Ag5dph/OdOczjOmIhe72YneXh4eHheAW/RGlkeHh4eHh4eHh6ecoD/B7hKEdRHnsAoAAAAAElFTkSuQmCC;" vertex="1" parent="1">
          <mxGeometry x="60" y="2" width="690" height="57" as="geometry" />
        </mxCell>
        <mxCell id="SzlN7uqFEOjFIe1JulzQ-2" value="can 0" style="rounded=1;whiteSpace=wrap;html=1;" vertex="1" parent="1">
          <mxGeometry x="340" y="66" width="100" height="23" as="geometry" />
        </mxCell>
        <mxCell id="SzlN7uqFEOjFIe1JulzQ-3" value="alm cont" style="rounded=1;whiteSpace=wrap;html=1;" vertex="1" parent="1">
          <mxGeometry x="340" y="122" width="100" height="23" as="geometry" />
        </mxCell>
        <mxCell id="SzlN7uqFEOjFIe1JulzQ-4" value="alm mayor" style="rounded=1;whiteSpace=wrap;html=1;" vertex="1" parent="1">
          <mxGeometry x="340" y="146" width="100" height="23" as="geometry" />
        </mxCell>
        <mxCell id="SzlN7uqFEOjFIe1JulzQ-7" value="lea 3000" style="shape=trapezoid;perimeter=trapezoidPerimeter;whiteSpace=wrap;html=1;fixedSize=1;direction=west;" vertex="1" parent="1">
          <mxGeometry x="330" y="223" width="120" height="30" as="geometry" />
        </mxCell>
        <mxCell id="SzlN7uqFEOjFIe1JulzQ-8" value="sum cero" style="rounded=1;whiteSpace=wrap;html=1;" vertex="1" parent="1">
          <mxGeometry x="340" y="285" width="100" height="23" as="geometry" />
        </mxCell>
        <mxCell id="SzlN7uqFEOjFIe1JulzQ-14" style="edgeStyle=orthogonalEdgeStyle;rounded=0;orthogonalLoop=1;jettySize=auto;html=1;exitX=1;exitY=0.5;exitDx=0;exitDy=0;" edge="1" parent="1" source="SzlN7uqFEOjFIe1JulzQ-9" target="SzlN7uqFEOjFIe1JulzQ-10">
          <mxGeometry relative="1" as="geometry" />
        </mxCell>
        <mxCell id="SzlN7uqFEOjFIe1JulzQ-9" value="JN" style="rhombus;whiteSpace=wrap;html=1;" vertex="1" parent="1">
          <mxGeometry x="355" y="310" width="70" height="46" as="geometry" />
        </mxCell>
        <mxCell id="SzlN7uqFEOjFIe1JulzQ-10" value="car mayor" style="rounded=1;whiteSpace=wrap;html=1;" vertex="1" parent="1">
          <mxGeometry x="440" y="350" width="100" height="23" as="geometry" />
        </mxCell>
        <mxCell id="SzlN7uqFEOjFIe1JulzQ-11" value="esa 6000" style="shape=trapezoid;perimeter=trapezoidPerimeter;whiteSpace=wrap;html=1;fixedSize=1;" vertex="1" parent="1">
          <mxGeometry x="435" y="375" width="110" height="27" as="geometry" />
        </mxCell>
        <mxCell id="SzlN7uqFEOjFIe1JulzQ-12" value="car cont" style="rounded=1;whiteSpace=wrap;html=1;" vertex="1" parent="1">
          <mxGeometry x="440" y="403" width="100" height="23" as="geometry" />
        </mxCell>
        <mxCell id="SzlN7uqFEOjFIe1JulzQ-13" value="esa 6000" style="shape=trapezoid;perimeter=trapezoidPerimeter;whiteSpace=wrap;html=1;fixedSize=1;" vertex="1" parent="1">
          <mxGeometry x="435" y="428" width="110" height="27" as="geometry" />
        </mxCell>
        <mxCell id="SzlN7uqFEOjFIe1JulzQ-15" value="PAR" style="ellipse;whiteSpace=wrap;html=1;" vertex="1" parent="1">
          <mxGeometry x="455" y="455" width="70" height="45" as="geometry" />
        </mxCell>
        <mxCell id="SzlN7uqFEOjFIe1JulzQ-16" value="" style="endArrow=none;html=1;rounded=0;entryX=0.5;entryY=1;entryDx=0;entryDy=0;" edge="1" parent="1" target="SzlN7uqFEOjFIe1JulzQ-9">
          <mxGeometry width="50" height="50" relative="1" as="geometry">
            <mxPoint x="390" y="480" as="sourcePoint" />
            <mxPoint x="390" y="340" as="targetPoint" />
          </mxGeometry>
        </mxCell>
        <mxCell id="SzlN7uqFEOjFIe1JulzQ-17" value="res mayor" style="rounded=1;whiteSpace=wrap;html=1;" vertex="1" parent="1">
          <mxGeometry x="340" y="477" width="100" height="23" as="geometry" />
        </mxCell>
        <mxCell id="SzlN7uqFEOjFIe1JulzQ-28" style="edgeStyle=orthogonalEdgeStyle;rounded=0;orthogonalLoop=1;jettySize=auto;html=1;exitX=1;exitY=0.5;exitDx=0;exitDy=0;entryX=0.5;entryY=0;entryDx=0;entryDy=0;" edge="1" parent="1" source="SzlN7uqFEOjFIe1JulzQ-19" target="SzlN7uqFEOjFIe1JulzQ-27">
          <mxGeometry relative="1" as="geometry" />
        </mxCell>
        <mxCell id="SzlN7uqFEOjFIe1JulzQ-19" value="JN" style="rhombus;whiteSpace=wrap;html=1;" vertex="1" parent="1">
          <mxGeometry x="355" y="504" width="70" height="46" as="geometry" />
        </mxCell>
        <mxCell id="SzlN7uqFEOjFIe1JulzQ-21" value="" style="endArrow=none;html=1;rounded=0;" edge="1" parent="1">
          <mxGeometry width="50" height="50" relative="1" as="geometry">
            <mxPoint x="390" y="580" as="sourcePoint" />
            <mxPoint x="389.58" y="550" as="targetPoint" />
          </mxGeometry>
        </mxCell>
        <mxCell id="SzlN7uqFEOjFIe1JulzQ-22" value="car num" style="rounded=1;whiteSpace=wrap;html=1;" vertex="1" parent="1">
          <mxGeometry x="340" y="753" width="100" height="23" as="geometry" />
        </mxCell>
        <mxCell id="SzlN7uqFEOjFIe1JulzQ-25" value="alm num" style="rounded=1;whiteSpace=wrap;html=1;" vertex="1" parent="1">
          <mxGeometry x="340" y="258" width="100" height="23" as="geometry" />
        </mxCell>
        <mxCell id="SzlN7uqFEOjFIe1JulzQ-26" value="alm mayor" style="rounded=1;whiteSpace=wrap;html=1;" vertex="1" parent="1">
          <mxGeometry x="340" y="782" width="100" height="23" as="geometry" />
        </mxCell>
        <mxCell id="SzlN7uqFEOjFIe1JulzQ-56" style="edgeStyle=orthogonalEdgeStyle;rounded=0;orthogonalLoop=1;jettySize=auto;html=1;exitX=1;exitY=0.5;exitDx=0;exitDy=0;entryX=0;entryY=1;entryDx=0;entryDy=0;" edge="1" parent="1" source="SzlN7uqFEOjFIe1JulzQ-27" target="SzlN7uqFEOjFIe1JulzQ-7">
          <mxGeometry relative="1" as="geometry">
            <Array as="points">
              <mxPoint x="600" y="568" />
              <mxPoint x="600" y="203" />
              <mxPoint x="450" y="203" />
            </Array>
          </mxGeometry>
        </mxCell>
        <mxCell id="SzlN7uqFEOjFIe1JulzQ-27" value="JI 05" style="shape=step;perimeter=stepPerimeter;whiteSpace=wrap;html=1;fixedSize=1;" vertex="1" parent="1">
          <mxGeometry x="450" y="550" width="70" height="35" as="geometry" />
        </mxCell>
        <mxCell id="SzlN7uqFEOjFIe1JulzQ-30" value="car cont" style="rounded=1;whiteSpace=wrap;html=1;" vertex="1" parent="1">
          <mxGeometry x="440" y="632" width="100" height="23" as="geometry" />
        </mxCell>
        <mxCell id="SzlN7uqFEOjFIe1JulzQ-31" value="sum uno" style="rounded=1;whiteSpace=wrap;html=1;" vertex="1" parent="1">
          <mxGeometry x="440" y="658" width="100" height="23" as="geometry" />
        </mxCell>
        <mxCell id="SzlN7uqFEOjFIe1JulzQ-34" style="edgeStyle=orthogonalEdgeStyle;rounded=0;orthogonalLoop=1;jettySize=auto;html=1;exitX=1;exitY=0.5;exitDx=0;exitDy=0;" edge="1" parent="1" source="SzlN7uqFEOjFIe1JulzQ-33" target="SzlN7uqFEOjFIe1JulzQ-30">
          <mxGeometry relative="1" as="geometry" />
        </mxCell>
        <mxCell id="SzlN7uqFEOjFIe1JulzQ-33" value="JZ" style="rhombus;whiteSpace=wrap;html=1;" vertex="1" parent="1">
          <mxGeometry x="355" y="576" width="70" height="46" as="geometry" />
        </mxCell>
        <mxCell id="SzlN7uqFEOjFIe1JulzQ-61" style="edgeStyle=orthogonalEdgeStyle;rounded=0;orthogonalLoop=1;jettySize=auto;html=1;exitX=1;exitY=0.5;exitDx=0;exitDy=0;" edge="1" parent="1" source="SzlN7uqFEOjFIe1JulzQ-35">
          <mxGeometry relative="1" as="geometry">
            <mxPoint x="600" y="731.1666666666667" as="targetPoint" />
          </mxGeometry>
        </mxCell>
        <mxCell id="SzlN7uqFEOjFIe1JulzQ-35" value="JI 05" style="shape=step;perimeter=stepPerimeter;whiteSpace=wrap;html=1;fixedSize=1;" vertex="1" parent="1">
          <mxGeometry x="450" y="714" width="80" height="35" as="geometry" />
        </mxCell>
        <mxCell id="SzlN7uqFEOjFIe1JulzQ-40" value="alm cero" style="rounded=1;whiteSpace=wrap;html=1;" vertex="1" parent="1">
          <mxGeometry x="340" y="94" width="100" height="23" as="geometry" />
        </mxCell>
        <mxCell id="SzlN7uqFEOjFIe1JulzQ-41" value="can 1" style="rounded=1;whiteSpace=wrap;html=1;" vertex="1" parent="1">
          <mxGeometry x="340" y="171" width="100" height="23" as="geometry" />
        </mxCell>
        <mxCell id="SzlN7uqFEOjFIe1JulzQ-42" value="alm uno" style="rounded=1;whiteSpace=wrap;html=1;" vertex="1" parent="1">
          <mxGeometry x="340" y="197" width="100" height="23" as="geometry" />
        </mxCell>
        <mxCell id="SzlN7uqFEOjFIe1JulzQ-43" value="" style="endArrow=none;html=1;rounded=0;" edge="1" parent="1">
          <mxGeometry width="50" height="50" relative="1" as="geometry">
            <mxPoint x="390" y="750" as="sourcePoint" />
            <mxPoint x="390" y="620" as="targetPoint" />
          </mxGeometry>
        </mxCell>
        <mxCell id="SzlN7uqFEOjFIe1JulzQ-44" value="00" style="text;html=1;strokeColor=none;fillColor=none;align=center;verticalAlign=middle;whiteSpace=wrap;rounded=0;" vertex="1" parent="1">
          <mxGeometry x="290" y="65" width="60" height="30" as="geometry" />
        </mxCell>
        <mxCell id="SzlN7uqFEOjFIe1JulzQ-45" value="01" style="text;html=1;strokeColor=none;fillColor=none;align=center;verticalAlign=middle;whiteSpace=wrap;rounded=0;" vertex="1" parent="1">
          <mxGeometry x="290" y="92" width="60" height="30" as="geometry" />
        </mxCell>
        <mxCell id="SzlN7uqFEOjFIe1JulzQ-46" value="02" style="text;html=1;strokeColor=none;fillColor=none;align=center;verticalAlign=middle;whiteSpace=wrap;rounded=0;" vertex="1" parent="1">
          <mxGeometry x="290" y="122" width="60" height="30" as="geometry" />
        </mxCell>
        <mxCell id="SzlN7uqFEOjFIe1JulzQ-47" value="03" style="text;html=1;strokeColor=none;fillColor=none;align=center;verticalAlign=middle;whiteSpace=wrap;rounded=0;" vertex="1" parent="1">
          <mxGeometry x="290" y="142.5" width="60" height="30" as="geometry" />
        </mxCell>
        <mxCell id="SzlN7uqFEOjFIe1JulzQ-48" value="04" style="text;html=1;strokeColor=none;fillColor=none;align=center;verticalAlign=middle;whiteSpace=wrap;rounded=0;" vertex="1" parent="1">
          <mxGeometry x="290" y="171" width="60" height="30" as="geometry" />
        </mxCell>
        <mxCell id="SzlN7uqFEOjFIe1JulzQ-49" value="05" style="text;html=1;strokeColor=none;fillColor=none;align=center;verticalAlign=middle;whiteSpace=wrap;rounded=0;" vertex="1" parent="1">
          <mxGeometry x="290" y="220" width="60" height="30" as="geometry" />
        </mxCell>
        <mxCell id="SzlN7uqFEOjFIe1JulzQ-50" value="06" style="text;html=1;strokeColor=none;fillColor=none;align=center;verticalAlign=middle;whiteSpace=wrap;rounded=0;" vertex="1" parent="1">
          <mxGeometry x="290" y="253" width="60" height="30" as="geometry" />
        </mxCell>
        <mxCell id="SzlN7uqFEOjFIe1JulzQ-51" value="07" style="text;html=1;strokeColor=none;fillColor=none;align=center;verticalAlign=middle;whiteSpace=wrap;rounded=0;" vertex="1" parent="1">
          <mxGeometry x="290" y="280" width="60" height="30" as="geometry" />
        </mxCell>
        <mxCell id="SzlN7uqFEOjFIe1JulzQ-52" value="08" style="text;html=1;strokeColor=none;fillColor=none;align=center;verticalAlign=middle;whiteSpace=wrap;rounded=0;" vertex="1" parent="1">
          <mxGeometry x="290" y="317" width="60" height="30" as="geometry" />
        </mxCell>
        <mxCell id="SzlN7uqFEOjFIe1JulzQ-53" value="09" style="text;html=1;strokeColor=none;fillColor=none;align=center;verticalAlign=middle;whiteSpace=wrap;rounded=0;" vertex="1" parent="1">
          <mxGeometry x="280" y="473.5" width="60" height="30" as="geometry" />
        </mxCell>
        <mxCell id="SzlN7uqFEOjFIe1JulzQ-54" value="10" style="text;html=1;strokeColor=none;fillColor=none;align=center;verticalAlign=middle;whiteSpace=wrap;rounded=0;" vertex="1" parent="1">
          <mxGeometry x="280" y="512" width="60" height="30" as="geometry" />
        </mxCell>
        <mxCell id="SzlN7uqFEOjFIe1JulzQ-55" value="11" style="text;html=1;strokeColor=none;fillColor=none;align=center;verticalAlign=middle;whiteSpace=wrap;rounded=0;" vertex="1" parent="1">
          <mxGeometry x="280" y="583" width="60" height="30" as="geometry" />
        </mxCell>
        <mxCell id="SzlN7uqFEOjFIe1JulzQ-58" style="edgeStyle=orthogonalEdgeStyle;rounded=0;orthogonalLoop=1;jettySize=auto;html=1;exitX=1;exitY=0.5;exitDx=0;exitDy=0;" edge="1" parent="1" source="SzlN7uqFEOjFIe1JulzQ-57">
          <mxGeometry relative="1" as="geometry">
            <mxPoint x="600" y="560" as="targetPoint" />
          </mxGeometry>
        </mxCell>
        <mxCell id="SzlN7uqFEOjFIe1JulzQ-57" value="JI 05" style="shape=step;perimeter=stepPerimeter;whiteSpace=wrap;html=1;fixedSize=1;" vertex="1" parent="1">
          <mxGeometry x="347.5" y="871" width="85" height="35" as="geometry" />
        </mxCell>
        <mxCell id="SzlN7uqFEOjFIe1JulzQ-59" value="alm cont" style="rounded=1;whiteSpace=wrap;html=1;" vertex="1" parent="1">
          <mxGeometry x="440" y="684" width="100" height="23" as="geometry" />
        </mxCell>
        <mxCell id="SzlN7uqFEOjFIe1JulzQ-62" style="edgeStyle=orthogonalEdgeStyle;rounded=0;orthogonalLoop=1;jettySize=auto;html=1;exitX=0.75;exitY=1;exitDx=0;exitDy=0;" edge="1" parent="1" source="SzlN7uqFEOjFIe1JulzQ-60">
          <mxGeometry relative="1" as="geometry">
            <mxPoint x="415.16666666666674" y="840" as="targetPoint" />
          </mxGeometry>
        </mxCell>
        <mxCell id="SzlN7uqFEOjFIe1JulzQ-60" value="car uno" style="rounded=1;whiteSpace=wrap;html=1;" vertex="1" parent="1">
          <mxGeometry x="340" y="809" width="100" height="23" as="geometry" />
        </mxCell>
        <mxCell id="SzlN7uqFEOjFIe1JulzQ-63" value="alm cont" style="rounded=1;whiteSpace=wrap;html=1;" vertex="1" parent="1">
          <mxGeometry x="340" y="840" width="100" height="23" as="geometry" />
        </mxCell>
        <mxCell id="SzlN7uqFEOjFIe1JulzQ-64" value="12" style="text;html=1;strokeColor=none;fillColor=none;align=center;verticalAlign=middle;whiteSpace=wrap;rounded=0;" vertex="1" parent="1">
          <mxGeometry x="270" y="752" width="60" height="30" as="geometry" />
        </mxCell>
        <mxCell id="SzlN7uqFEOjFIe1JulzQ-65" value="13" style="text;html=1;strokeColor=none;fillColor=none;align=center;verticalAlign=middle;whiteSpace=wrap;rounded=0;" vertex="1" parent="1">
          <mxGeometry x="270" y="775" width="60" height="30" as="geometry" />
        </mxCell>
        <mxCell id="SzlN7uqFEOjFIe1JulzQ-66" value="14" style="text;html=1;strokeColor=none;fillColor=none;align=center;verticalAlign=middle;whiteSpace=wrap;rounded=0;" vertex="1" parent="1">
          <mxGeometry x="270" y="802" width="60" height="30" as="geometry" />
        </mxCell>
        <mxCell id="SzlN7uqFEOjFIe1JulzQ-67" value="15" style="text;html=1;strokeColor=none;fillColor=none;align=center;verticalAlign=middle;whiteSpace=wrap;rounded=0;" vertex="1" parent="1">
          <mxGeometry x="270" y="836.5" width="60" height="30" as="geometry" />
        </mxCell>
        <mxCell id="SzlN7uqFEOjFIe1JulzQ-68" value="16" style="text;html=1;strokeColor=none;fillColor=none;align=center;verticalAlign=middle;whiteSpace=wrap;rounded=0;" vertex="1" parent="1">
          <mxGeometry x="270" y="873.5" width="60" height="30" as="geometry" />
        </mxCell>
        <mxCell id="SzlN7uqFEOjFIe1JulzQ-69" value="17" style="text;html=1;strokeColor=none;fillColor=none;align=center;verticalAlign=middle;whiteSpace=wrap;rounded=0;" vertex="1" parent="1">
          <mxGeometry x="525" y="346.5" width="60" height="30" as="geometry" />
        </mxCell>
        <mxCell id="SzlN7uqFEOjFIe1JulzQ-70" value="18" style="text;html=1;strokeColor=none;fillColor=none;align=center;verticalAlign=middle;whiteSpace=wrap;rounded=0;" vertex="1" parent="1">
          <mxGeometry x="525" y="372" width="60" height="30" as="geometry" />
        </mxCell>
        <mxCell id="SzlN7uqFEOjFIe1JulzQ-71" value="19" style="text;html=1;strokeColor=none;fillColor=none;align=center;verticalAlign=middle;whiteSpace=wrap;rounded=0;" vertex="1" parent="1">
          <mxGeometry x="525" y="403" width="60" height="30" as="geometry" />
        </mxCell>
        <mxCell id="SzlN7uqFEOjFIe1JulzQ-72" value="20" style="text;html=1;strokeColor=none;fillColor=none;align=center;verticalAlign=middle;whiteSpace=wrap;rounded=0;" vertex="1" parent="1">
          <mxGeometry x="525" y="428" width="60" height="30" as="geometry" />
        </mxCell>
        <mxCell id="SzlN7uqFEOjFIe1JulzQ-73" value="21" style="text;html=1;strokeColor=none;fillColor=none;align=center;verticalAlign=middle;whiteSpace=wrap;rounded=0;" vertex="1" parent="1">
          <mxGeometry x="525" y="462.5" width="60" height="30" as="geometry" />
        </mxCell>
        <mxCell id="SzlN7uqFEOjFIe1JulzQ-74" value="22" style="text;html=1;strokeColor=none;fillColor=none;align=center;verticalAlign=middle;whiteSpace=wrap;rounded=0;" vertex="1" parent="1">
          <mxGeometry x="410" y="550" width="60" height="30" as="geometry" />
        </mxCell>
        <mxCell id="SzlN7uqFEOjFIe1JulzQ-75" value="23" style="text;html=1;strokeColor=none;fillColor=none;align=center;verticalAlign=middle;whiteSpace=wrap;rounded=0;" vertex="1" parent="1">
          <mxGeometry x="390" y="632" width="60" height="30" as="geometry" />
        </mxCell>
        <mxCell id="SzlN7uqFEOjFIe1JulzQ-79" value="24" style="text;html=1;strokeColor=none;fillColor=none;align=center;verticalAlign=middle;whiteSpace=wrap;rounded=0;" vertex="1" parent="1">
          <mxGeometry x="390" y="658" width="60" height="30" as="geometry" />
        </mxCell>
        <mxCell id="SzlN7uqFEOjFIe1JulzQ-80" value="25" style="text;html=1;strokeColor=none;fillColor=none;align=center;verticalAlign=middle;whiteSpace=wrap;rounded=0;" vertex="1" parent="1">
          <mxGeometry x="390" y="680.5" width="60" height="30" as="geometry" />
        </mxCell>
        <mxCell id="SzlN7uqFEOjFIe1JulzQ-81" value="26" style="text;html=1;strokeColor=none;fillColor=none;align=center;verticalAlign=middle;whiteSpace=wrap;rounded=0;" vertex="1" parent="1">
          <mxGeometry x="390" y="716.5" width="60" height="30" as="geometry" />
        </mxCell>
      </root>
    </mxGraphModel>
  </diagram>
</mxfile>
